<svg id="Layer_1" data-name="Layer 1" xmlns="http://www.w3.org/2000/svg" viewBox="0 0 64.44 45.62"><defs><style>.cls-1{fill:#d4953e;}.cls-2{fill:#fff;}</style></defs><title>cust</title><ellipse class="cls-1" cx="17.64" cy="14.15" rx="11.65" ry="14.15"/><path class="cls-1" d="M33.42,44.26H-1.85A17.64,17.64,0,0,1,33.42,44.26Z" transform="translate(1.85 -6.32)"/><ellipse class="cls-1" cx="46.8" cy="14.15" rx="11.65" ry="14.15"/><path class="cls-1" d="M62.58,44.26H27.31A17.64,17.64,0,0,1,62.58,44.26Z" transform="translate(1.85 -6.32)"/><ellipse class="cls-2" cx="30.41" cy="22.02" rx="13.62" ry="16.41"/><path class="cls-2" d="M47.08,51.95H10.43c0-6.56,2.22-12.54,7.49-15.72,2.77-1.67,7.36-2.4,10.83-2.4s7.59,0.07,10.36,1.74C44.38,38.74,47.06,45.38,47.08,51.95Z" transform="translate(1.85 -6.32)"/><ellipse class="cls-1" cx="30.41" cy="21.84" rx="11.65" ry="14.15"/><path class="cls-1" d="M46.19,51.95H10.92A17.64,17.64,0,0,1,46.19,51.95Z" transform="translate(1.85 -6.32)"/><path class="cls-1" d="M34.29,12.34" transform="translate(1.85 -6.32)"/></svg>