<svg id="Layer_1" data-name="Layer 1" xmlns="http://www.w3.org/2000/svg" viewBox="0 0 56.79 64"><defs><style>.cls-1{fill:#d4953e;}</style></defs><title>dollar</title><path class="cls-1" d="M27.76,0h5V8.25c5,0,8.65,1.25,11.37,4.2A9,9,0,0,0,43.61,16l0.48,5.68h-5.2V19.54c0-5-2.88-6.93-8.09-6.93-5,0-9.61,2.72-9.61,7.86,0,9.81,24.5,6.23,24.5,20.71,0,6.85-6.32,12-13,12.61V64h-5V53.8c-3.44,0-9.77-1.95-13.13-2.8L15,46.4a16.43,16.43,0,0,0-1.12-6.46h5.36c0.08,1.95.24,4.83,1.36,6.38,1.76,2.41,6.88,3.12,9.61,3.12,5.12,0,10.25-2.65,10.25-8.1,0-11.13-24.5-7-24.5-20.55,0-6.38,5.52-11.6,11.77-12.54V0Z" transform="translate(-1.73)"/><circle class="cls-1" cx="3.66" cy="28.54" r="3.66"/><circle class="cls-1" cx="53.12" cy="28.54" r="3.66"/></svg>