<svg id="Layer_1" data-name="Layer 1" xmlns="http://www.w3.org/2000/svg" viewBox="0 0 51.19 66.52"><defs><style>.cls-1{fill:none;stroke:#d4953e;stroke-miterlimit:10;stroke-width:3px;}.cls-2{fill:#d4953e;}</style></defs><title>hq</title><circle class="cls-1" cx="25.6" cy="25.97" r="20.69"/><path class="cls-2" d="M30,3.88V-0.67S29.95-.93,29-0.2s-2.46,4.08-2.46,4.08H30Z" transform="translate(-4.4 0.71)"/><path class="cls-2" d="M30,3.88V-0.67s0.05-.26,1,0.47,2.46,4.08,2.46,4.08H30Z" transform="translate(-4.4 0.71)"/><path class="cls-2" d="M22.69,5.17L21.13,0.9s-0.14-.23-0.82.8-0.92,4.67-.92,4.67Z" transform="translate(-4.4 0.71)"/><path class="cls-2" d="M22.69,5.17L21.13,0.9s0-.26,1.15.08S26,4,26,4Z" transform="translate(-4.4 0.71)"/><path class="cls-2" d="M16.26,8.88L13.34,5.4s-0.21-.17-0.5,1,0.74,4.71.74,4.71Z" transform="translate(-4.4 0.71)"/><path class="cls-2" d="M16.26,8.88L13.34,5.4s-0.13-.23,1.11-0.31,4.51,1.54,4.51,1.54Z" transform="translate(-4.4 0.71)"/><path class="cls-2" d="M11.49,14.57L7.55,12.3s-0.25-.09-0.12,1.14,2.3,4.17,2.3,4.17Z" transform="translate(-4.4 0.71)"/><path class="cls-2" d="M11.49,14.57L7.55,12.3s-0.2-.18.93-0.67,4.76-.09,4.76-0.09Z" transform="translate(-4.4 0.71)"/><path class="cls-2" d="M8.95,21.55l-4.48-.79s-0.27,0,.28,1.11S8.34,25,8.34,25Z" transform="translate(-4.4 0.71)"/><path class="cls-2" d="M8.95,21.55l-4.48-.79s-0.25-.1.65-0.95,4.44-1.72,4.44-1.72Z" transform="translate(-4.4 0.71)"/><path class="cls-2" d="M8.95,29l-4.48.79s-0.25.1,0.65,0.95,4.44,1.72,4.44,1.72Z" transform="translate(-4.4 0.71)"/><path class="cls-2" d="M8.95,29l-4.48.79s-0.27,0,.28-1.11,3.59-3.13,3.59-3.13Z" transform="translate(-4.4 0.71)"/><path class="cls-2" d="M11.49,35.95L7.55,38.22s-0.2.18,0.93,0.67S13.24,39,13.24,39Z" transform="translate(-4.4 0.71)"/><path class="cls-2" d="M11.49,35.95L7.55,38.22s-0.25.09-.12-1.14,2.3-4.17,2.3-4.17Z" transform="translate(-4.4 0.71)"/><path class="cls-2" d="M16.26,41.63l-2.92,3.48s-0.13.23,1.11,0.31,4.51-1.54,4.51-1.54Z" transform="translate(-4.4 0.71)"/><path class="cls-2" d="M16.26,41.63l-2.92,3.48s-0.21.17-.5-1,0.74-4.71.74-4.71Z" transform="translate(-4.4 0.71)"/><path class="cls-2" d="M22.69,45.35l-1.56,4.27s0,0.26,1.15-.08,3.71-3,3.71-3Z" transform="translate(-4.4 0.71)"/><path class="cls-2" d="M22.69,45.35l-1.56,4.27s-0.14.23-.82-0.8-0.92-4.67-.92-4.67Z" transform="translate(-4.4 0.71)"/><path class="cls-2" d="M30,46.63v4.55s0.05,0.26,1-.47,2.46-4.08,2.46-4.08H30Z" transform="translate(-4.4 0.71)"/><path class="cls-2" d="M30,46.63v4.55s-0.05.26-1-.47-2.46-4.08-2.46-4.08H30Z" transform="translate(-4.4 0.71)"/><path class="cls-2" d="M37.31,45.35l1.56,4.27s0.14,0.23.82-.8,0.92-4.67.92-4.67Z" transform="translate(-4.4 0.71)"/><path class="cls-2" d="M37.31,45.35l1.56,4.27s0,0.26-1.15-.08-3.71-3-3.71-3Z" transform="translate(-4.4 0.71)"/><path class="cls-2" d="M43.74,41.63l2.92,3.48s0.21,0.17.5-1-0.74-4.71-.74-4.71Z" transform="translate(-4.4 0.71)"/><path class="cls-2" d="M43.74,41.63l2.92,3.48s0.13,0.23-1.11.31-4.51-1.54-4.51-1.54Z" transform="translate(-4.4 0.71)"/><path class="cls-2" d="M48.51,35.95l3.94,2.27s0.25,0.09.12-1.14-2.3-4.17-2.3-4.17Z" transform="translate(-4.4 0.71)"/><path class="cls-2" d="M48.51,35.95l3.94,2.27s0.2,0.18-.93.67S46.76,39,46.76,39Z" transform="translate(-4.4 0.71)"/><path class="cls-2" d="M51.05,29l4.48,0.79s0.27,0-.28-1.11-3.59-3.13-3.59-3.13Z" transform="translate(-4.4 0.71)"/><path class="cls-2" d="M51.05,29l4.48,0.79s0.25,0.1-.65.95-4.44,1.72-4.44,1.72Z" transform="translate(-4.4 0.71)"/><path class="cls-2" d="M51.05,21.55l4.48-.79s0.25-.1-0.65-0.95-4.44-1.72-4.44-1.72Z" transform="translate(-4.4 0.71)"/><path class="cls-2" d="M51.05,21.55l4.48-.79s0.27,0-.28,1.11S51.66,25,51.66,25Z" transform="translate(-4.4 0.71)"/><path class="cls-2" d="M48.51,14.57l3.94-2.27s0.2-.18-0.93-0.67-4.76-.09-4.76-0.09Z" transform="translate(-4.4 0.71)"/><path class="cls-2" d="M48.51,14.57l3.94-2.27s0.25-.09.12,1.14-2.3,4.17-2.3,4.17Z" transform="translate(-4.4 0.71)"/><path class="cls-2" d="M43.74,8.88L46.66,5.4s0.13-.23-1.11-0.31-4.51,1.54-4.51,1.54Z" transform="translate(-4.4 0.71)"/><path class="cls-2" d="M43.74,8.88L46.66,5.4s0.21-.17.5,1-0.74,4.71-.74,4.71Z" transform="translate(-4.4 0.71)"/><path class="cls-2" d="M37.31,5.17L38.87,0.9s0-.26-1.15.08S34,4,34,4Z" transform="translate(-4.4 0.71)"/><path class="cls-2" d="M37.31,5.17L38.87,0.9s0.14-.23.82,0.8,0.92,4.67.92,4.67Z" transform="translate(-4.4 0.71)"/><polygon class="cls-2" points="49.74 62.4 43.77 60.8 43.77 66.52 33.59 51.72 34.22 51.3 40.27 59.78 40.62 59.54 34.56 51.05 39.58 47.61 49.74 62.4"/><polygon class="cls-2" points="1.11 62.4 7.08 60.8 7.08 66.52 17.26 51.72 16.63 51.3 10.57 59.78 10.23 59.54 16.29 51.05 11.27 47.61 1.11 62.4"/><polygon class="cls-2" points="25.6 8.98 26.16 10.7 27.97 10.7 26.5 11.77 27.06 13.49 25.6 12.43 24.13 13.49 24.69 11.77 23.22 10.7 25.04 10.7 25.6 8.98"/><polygon class="cls-2" points="17.1 11.25 18.45 12.47 20.02 11.56 19.28 13.22 20.63 14.43 18.82 14.24 18.09 15.9 17.71 14.12 15.91 13.94 17.48 13.03 17.1 11.25"/><polygon class="cls-2" points="10.88 17.47 12.65 17.85 13.56 16.28 13.75 18.08 15.52 18.46 13.87 19.2 14.06 21 12.84 19.66 11.19 20.39 12.09 18.82 10.88 17.47"/><polygon class="cls-2" points="8.6 25.97 10.33 25.41 10.33 23.6 11.39 25.06 13.12 24.5 12.05 25.97 13.12 27.44 11.39 26.88 10.33 28.34 10.33 26.53 8.6 25.97"/><polygon class="cls-2" points="10.88 34.47 12.09 33.12 11.19 31.55 12.84 32.29 14.06 30.94 13.87 32.74 15.52 33.48 13.75 33.86 13.56 35.66 12.65 34.09 10.88 34.47"/><polygon class="cls-2" points="17.1 40.69 17.48 38.91 15.91 38.01 17.71 37.82 18.09 36.04 18.82 37.7 20.63 37.51 19.28 38.72 20.02 40.38 18.45 39.48 17.1 40.69"/><polygon class="cls-2" points="25.6 42.97 25.04 41.24 23.22 41.24 24.69 40.17 24.13 38.45 25.6 39.52 27.06 38.45 26.5 40.17 27.97 41.24 26.16 41.24 25.6 42.97"/><polygon class="cls-2" points="34.09 40.69 32.75 39.48 31.18 40.38 31.91 38.72 30.56 37.51 32.37 37.7 33.11 36.04 33.48 37.82 35.29 38.01 33.72 38.91 34.09 40.69"/><polygon class="cls-2" points="40.31 34.47 38.54 34.09 37.63 35.66 37.44 33.86 35.67 33.48 37.33 32.74 37.14 30.94 38.35 32.29 40.01 31.55 39.1 33.12 40.31 34.47"/><polygon class="cls-2" points="42.59 25.97 40.87 26.53 40.87 28.34 39.8 26.88 38.07 27.44 39.14 25.97 38.07 24.5 39.8 25.06 40.87 23.6 40.87 25.41 42.59 25.97"/><polygon class="cls-2" points="40.31 17.47 39.1 18.82 40.01 20.39 38.35 19.66 37.14 21 37.33 19.2 35.67 18.46 37.44 18.08 37.63 16.28 38.54 17.85 40.31 17.47"/><polygon class="cls-2" points="34.09 11.25 33.72 13.03 35.29 13.94 33.48 14.12 33.11 15.9 32.37 14.24 30.56 14.43 31.91 13.22 31.18 11.56 32.75 12.47 34.09 11.25"/></svg>