<svg id="Layer_1" data-name="Layer 1" xmlns="http://www.w3.org/2000/svg" viewBox="0 0 59.88 45.42"><defs><style>.cls-1{fill:#d4953e;}.cls-2{fill:none;stroke:#d4953e;stroke-miterlimit:10;stroke-width:2px;}</style></defs><title>suitcase</title><rect class="cls-1" x="29.87" y="8.87" width="17.99" height="36.56"/><rect class="cls-1" x="11.87" y="8.87" width="17.99" height="36.56"/><path class="cls-1" d="M60,25.5v28c0,2.35-1.41,4.26-3.15,4.26h-7V21.24h7C58.59,21.24,60,23.15,60,25.5Z" transform="translate(-0.12 -12.37)"/><path class="cls-1" d="M0.12,25.5v28c0,2.35,1.41,4.26,3.15,4.26h7V21.24h-7C1.53,21.24.12,23.15,0.12,25.5Z" transform="translate(-0.12 -12.37)"/><path class="cls-2" d="M23.48,1H36.25a2.61,2.61,0,0,1,2.61,2.61v8.73a0,0,0,0,1,0,0h-18a0,0,0,0,1,0,0V3.61A2.61,2.61,0,0,1,23.48,1Z"/></svg>