<svg id="Layer_1" data-name="Layer 1" xmlns="http://www.w3.org/2000/svg" viewBox="0 0 59.72 60.8"><defs><style>.cls-1{fill:none;stroke-width:4px;}.cls-1,.cls-2{stroke:#d4953e;stroke-miterlimit:10;}.cls-2,.cls-3{fill:#d4953e;}</style></defs><title>time</title><path class="cls-1" d="M5.73,47A28.39,28.39,0,1,0,2.74,25" transform="translate(-0.81 -2.11)"/><polygon class="cls-2" points="1.6 39.19 8.4 43 1.7 46.98 1.6 39.19"/><path class="cls-3" d="M29.48,6.87h0a1.6,1.6,0,0,1,1.6,1.6V33.64a0,0,0,0,1,0,0H27.88a0,0,0,0,1,0,0V8.48a1.6,1.6,0,0,1,1.6-1.6Z"/><path class="cls-3" d="M38.65,29.08h0a1.6,1.6,0,0,1,1.6,1.6V50.22a0,0,0,0,1,0,0H37a0,0,0,0,1,0,0V30.68A1.6,1.6,0,0,1,38.65,29.08Z" transform="translate(91.5 23.89) rotate(120)"/></svg>